<svg width="82.411279296875px" height="122.021240234375px" xmlns="http://www.w3.org/2000/svg" viewBox="208.7943603515625 13.9893798828125 82.411279296875 122.021240234375" style="background: rgba(0, 0, 0, 0); -darkreader-inline-bgimage: initial; -darkreader-inline-bgcolor:rgba(0, 0, 0, 0);" data-darkreader-inline-bgimage="" data-darkreader-inline-bgcolor="" preserveAspectRatio="xMidYMid"><defs><filter id="editing-hole" x="-100%" y="-100%" width="300%" height="300%"><feFlood flood-color="#000" result="black"></feFlood><feMorphology operator="dilate" radius="2" in="SourceGraphic" result="erode"></feMorphology><feGaussianBlur in="erode" stdDeviation="4" result="blur"></feGaussianBlur><feOffset in="blur" dx="2" dy="2" result="offset"></feOffset><feComposite operator="atop" in="offset" in2="black" result="merge"></feComposite><feComposite operator="in" in="merge" in2="SourceGraphic" result="inner-shadow"></feComposite></filter></defs><g filter="url(#editing-hole)"><g transform="translate(227.7303133904934, 96.75218772888184)"><path d="M24.96-4.80L24.96-4.80L24.96-4.80Q24.96-9.28 26.75-18.24L26.75-18.24L17.28-18.24L13.76 0L0.38 0L8.51-42.24L22.02-42.24L18.30-23.36L27.78-23.36L31.30-42.24L44.80-42.24L44.80-42.24Q43.90-37.50 42.75-32.19L42.75-32.19L40.58-21.76L40.58-21.76Q38.14-9.60 38.14-4.29L38.14-4.29L38.14-4.29Q38.14-2.11 38.85-0.90L38.85-0.90L38.85-0.90Q35.65 1.28 31.90 1.28L31.90 1.28L31.90 1.28Q28.16 1.28 26.56-0.51L26.56-0.51L26.56-0.51Q24.96-2.30 24.96-4.80Z" fill="white" data-darkreader-inline-fill="" style="-darkreader-inline-fill:#34383b;"></path></g></g><style>text {
  font-size: 64px;
  font-family: Arial Black;
  dominant-baseline: central;
  text-anchor: middle;
}</style><style class="darkreader darkreader--sync" media="screen"></style></svg>